<?xml version="1.0" encoding="UTF-8"?>
<svg width="522px" height="93px" viewBox="0 0 522 93" version="1.1" xmlns="http://www.w3.org/2000/svg" xmlns:xlink="http://www.w3.org/1999/xlink">
    <title>Logo - Main - Pink</title>
    <g id="Graphics" stroke="none" stroke-width="1" fill="none" fill-rule="evenodd">
        <g id="Artboard" transform="translate(-293.000000, -316.000000)" fill="#D24A5A">
            <g id="Logo---Main---Pink" transform="translate(293.319336, 316.000000)">
                <g id="The-Bank" transform="translate(0.000000, 11.541016)" fill-rule="nonzero">
                    <polygon id="Path" points="20.3857422 70.4589844 35.1318359 70.4589844 35.1318359 12.1582031 55.5175781 12.1582031 55.5175781 0 0 0 0 12.1582031 20.3857422 12.1582031"></polygon>
                    <path d="M60.4173828,70.4589844 L74.6751953,70.4589844 L74.6751953,40.5029297 C74.6751953,38.2080078 75.1024414,36.1897786 75.9569336,34.4482422 C76.8114258,32.7067057 78.0158529,31.3395182 79.5702148,30.3466797 C81.1245768,29.3538411 82.9434245,28.8574219 85.0267578,28.8574219 C88.2656901,28.8574219 90.7559245,29.8909505 92.4974609,31.9580078 C94.2389974,34.0250651 95.1097656,36.8815104 95.1097656,40.5273438 L95.1097656,70.4589844 L109.367578,70.4589844 L109.367578,37.5976562 C109.367578,33.3821615 108.627018,29.7403971 107.145898,26.6723633 C105.664779,23.6043294 103.557031,21.2320964 100.822656,19.5556641 C98.0882813,17.8792318 94.8249349,17.0410156 91.0326172,17.0410156 C87.1100911,17.0410156 83.7897786,17.9158529 81.0716797,19.6655273 C78.3535807,21.4152018 76.3190755,23.9176432 74.9681641,27.1728516 L74.6751953,27.1728516 L74.6751953,0 L60.4173828,0 L60.4173828,70.4589844 Z" id="Path"></path>
                    <path d="M139.926562,71.5332031 C143.653776,71.5332031 146.913053,71.0449219 149.704395,70.0683594 C152.495736,69.0917969 154.859831,67.7897135 156.79668,66.1621094 C158.733529,64.5345052 160.267546,62.7482096 161.39873,60.8032227 C162.529915,58.8582357 163.298958,56.9254557 163.705859,55.0048828 L163.82793,54.4433594 L150.741992,54.4433594 L150.644336,54.7363281 C150.318815,55.7291667 149.704395,56.6975911 148.801074,57.6416016 C147.897754,58.585612 146.729948,59.362793 145.297656,59.9731445 C143.865365,60.5834961 142.172656,60.8886719 140.219531,60.8886719 C137.745573,60.8886719 135.613411,60.3434245 133.823047,59.2529297 C132.032682,58.1624349 130.653288,56.5917969 129.684863,54.5410156 C128.716439,52.4902344 128.232227,50.0244141 128.232227,47.1435547 L128.232227,41.6015625 C128.232227,38.6230469 128.716439,36.0961914 129.684863,34.0209961 C130.653288,31.9458008 131.991992,30.3710938 133.700977,29.296875 C135.409961,28.2226562 137.371224,27.6855469 139.584766,27.6855469 C141.798307,27.6855469 143.743294,28.2063802 145.419727,29.2480469 C147.096159,30.2897135 148.40638,31.8440755 149.350391,33.9111328 C150.294401,35.9781901 150.766406,38.5416667 150.766406,41.6015625 L150.766406,47.0947266 L157.529102,38.6962891 L121.176563,38.6962891 L121.176563,47.6806641 L164.267383,47.6806641 L164.267383,43.2861328 C164.267383,38.0126953 163.254199,33.4065755 161.227832,29.4677734 C159.201465,25.5289714 156.324674,22.4731445 152.597461,20.300293 C148.870247,18.1274414 144.451302,17.0410156 139.340625,17.0410156 C134.229948,17.0410156 129.790658,18.1599935 126.022754,20.3979492 C122.25485,22.6359049 119.33737,25.797526 117.270313,29.8828125 C115.203255,33.968099 114.169727,38.7858073 114.169727,44.3359375 L114.169727,44.3847656 C114.169727,49.9511719 115.203255,54.7688802 117.270313,58.8378906 C119.33737,62.906901 122.29554,66.0400391 126.144824,68.2373047 C129.994108,70.4345703 134.588021,71.5332031 139.926562,71.5332031 Z" id="Path"></path>
                    <path d="M195.160742,70.4589844 L218.988867,70.4589844 C224.018164,70.4589844 228.347591,69.6411133 231.977148,68.0053711 C235.606706,66.3696289 238.410254,64.054362 240.387793,61.0595703 C242.365332,58.0647786 243.354102,54.5166016 243.354102,50.4150391 L243.354102,50.3173828 C243.354102,47.2249349 242.629818,44.4498698 241.18125,41.9921875 C239.732682,39.5345052 237.734798,37.5488281 235.187598,36.0351562 C232.640397,34.5214844 229.731055,33.6507161 226.45957,33.4228516 L226.45957,33.1298828 C229.047461,32.7718099 231.370866,31.8684896 233.429785,30.4199219 C235.488704,28.9713542 237.11224,27.1484375 238.300391,24.9511719 C239.488542,22.7539062 240.082617,20.3613281 240.082617,17.7734375 L240.082617,17.6757812 C240.082617,14.0625 239.203711,10.933431 237.445898,8.28857422 C235.688086,5.64371745 233.193783,3.60107422 229.962988,2.16064453 C226.732194,0.720214844 222.895117,0 218.451758,0 L195.160742,0 L195.160742,10.9619141 L214.643164,10.9619141 C218.093685,10.9619141 220.779232,11.730957 222.699805,13.269043 C224.620378,14.8071289 225.580664,16.9759115 225.580664,19.7753906 L225.580664,19.8730469 C225.580664,22.9166667 224.494238,25.2726237 222.321387,26.940918 C220.148535,28.6092122 216.986914,29.4433594 212.836523,29.4433594 L195.160742,29.4433594 L195.160742,39.453125 L214.569922,39.453125 C217.58099,39.453125 220.103776,39.827474 222.138281,40.5761719 C224.172786,41.3248698 225.706803,42.4397786 226.740332,43.9208984 C227.773861,45.4020182 228.290625,47.2249349 228.290625,49.3896484 L228.290625,49.4873047 C228.290625,52.742513 227.167578,55.2246094 224.921484,56.9335938 C222.675391,58.6425781 219.436458,59.4970703 215.204688,59.4970703 L195.160742,59.4970703 L195.160742,70.4589844 Z M187.787695,70.4589844 L202.533789,70.4589844 L202.533789,0 L187.787695,0 L187.787695,70.4589844 Z" id="Shape"></path>
                    <path d="M263.708008,71.2890625 C266.00293,71.2890625 268.131022,70.9431966 270.092285,70.2514648 C272.053548,69.5597331 273.803223,68.5668945 275.341309,67.2729492 C276.879395,65.9790039 278.144857,64.444987 279.137695,62.6708984 L279.430664,62.6708984 L279.430664,70.4589844 L293.688477,70.4589844 L293.688477,34.5703125 C293.688477,31.0546875 292.76888,27.9825846 290.929688,25.3540039 C289.090495,22.7254232 286.506673,20.6827799 283.178223,19.2260742 C279.849772,17.7693685 275.931315,17.0410156 271.422852,17.0410156 C266.816732,17.0410156 262.849447,17.7530924 259.520996,19.1772461 C256.192546,20.6013997 253.592448,22.5626628 251.720703,25.0610352 C249.848958,27.5594076 248.77474,30.4280599 248.498047,33.6669922 L248.449219,34.2529297 L261.486328,34.2529297 L261.583984,33.7890625 C261.942057,32.0963542 262.906413,30.7006836 264.477051,29.6020508 C266.047689,28.503418 268.159505,27.9541016 270.8125,27.9541016 C273.611979,27.9541016 275.74821,28.6254883 277.221191,29.9682617 C278.694173,31.3110352 279.430664,33.1461589 279.430664,35.4736328 L279.430664,51.3427734 C279.430664,53.1494141 278.946452,54.7770182 277.978027,56.2255859 C277.009603,57.6741536 275.691243,58.8134766 274.022949,59.6435547 C272.354655,60.4736328 270.454427,60.8886719 268.322266,60.8886719 C265.864583,60.8886719 263.899251,60.3434245 262.42627,59.2529297 C260.953288,58.1624349 260.216797,56.656901 260.216797,54.7363281 L260.216797,54.6630859 C260.216797,52.8076172 260.932943,51.3183594 262.365234,50.1953125 C263.797526,49.0722656 265.888997,48.429362 268.639648,48.2666016 L286.901367,47.0703125 L286.901367,38.2080078 L266.491211,39.4775391 C259.99707,39.8844401 254.975911,41.4469401 251.427734,44.1650391 C247.879557,46.883138 246.105469,50.6266276 246.105469,55.3955078 L246.105469,55.46875 C246.105469,58.5449219 246.846029,61.2752279 248.327148,63.659668 C249.808268,66.0441081 251.871257,67.9117839 254.516113,69.2626953 C257.16097,70.6136068 260.224935,71.2890625 263.708008,71.2890625 Z" id="Path"></path>
                    <path d="M300.44375,70.4589844 L314.701563,70.4589844 L314.701563,40.3808594 C314.701563,38.0859375 315.128809,36.0758464 315.983301,34.3505859 C316.837793,32.6253255 318.046289,31.2784831 319.608789,30.3100586 C321.171289,29.3416341 323.010482,28.8574219 325.126367,28.8574219 C328.332747,28.8574219 330.737533,29.7973633 332.340723,31.6772461 C333.943913,33.5571289 334.745508,36.2060547 334.745508,39.6240234 L334.745508,70.4589844 L349.00332,70.4589844 L349.00332,36.6699219 C349.00332,30.5338542 347.432682,25.7283529 344.291406,22.253418 C341.15013,18.7784831 336.706771,17.0410156 330.961328,17.0410156 C327.00625,17.0410156 323.694076,17.9036458 321.024805,19.6289062 C318.355534,21.3541667 316.345443,23.7223307 314.994531,26.7333984 L314.701563,26.7333984 L314.701563,18.1152344 L300.44375,18.1152344 L300.44375,70.4589844 Z" id="Path"></path>
                    <path d="M356.100391,70.4589844 L370.358203,70.4589844 L370.358203,0 L356.100391,0 L356.100391,70.4589844 Z M389.034961,70.4589844 L405.465625,70.4589844 L381.881641,36.4746094 L372.872852,47.3388672 L389.034961,70.4589844 Z M368.624805,55.0537109 L377.169727,45.6298828 L380.343555,45.6298828 L404.489062,18.1152344 L388.326953,18.1152344 L370.651172,39.0625 L368.624805,39.0625 L368.624805,55.0537109 Z" id="Shape"></path>
                </g>
                <g id="Group" transform="translate(478.180664, 46.500000) scale(1, -1) translate(-478.180664, -46.500000) translate(434.680664, 0.000000)">
                    <polygon id="Path" points="0 0 0 55 87 55"></polygon>
                    <polygon id="Path-Copy" points="0 55 0 93 60 93"></polygon>
                </g>
            </g>
        </g>
    </g>
</svg>